<?xml version="1.0" encoding="utf-8"?>
<!-- Generator: Adobe Illustrator 25.1.0, SVG Export Plug-In . SVG Version: 6.00 Build 0)  -->
<svg version="1.1" xmlns="http://www.w3.org/2000/svg" xmlns:xlink="http://www.w3.org/1999/xlink" x="0px" y="0px"
	 viewBox="0 0 80 80" style="enable-background:new 0 0 80 80;" xml:space="preserve">
<style type="text/css">
	.st0{fill:#42210B;}
	.st1{fill:#006837;}
	.st2{fill:#009245;}
	.st3{fill:#D9E021;stroke:#FFFFFF;stroke-width:0.1;stroke-miterlimit:10;}
</style>
<g id="sky">
</g>
<g id="sand">
</g>
<g id="sea">
</g>
<g id="Layer_1">
	<path class="st0" d="M27.3,19.2c0,0,3.8,9.8,4.4,22.9c0.6,13.1-1.2,26.8-1.9,28.5s-0.9,3.3-2.2,3.5c-1.3,0.1,6.6,0.1,6.6,0.1
		s-2-0.9-1.9-4.4c0.1-3.6,1.8-15.6,1.9-24.1c0.1-11.3-3.2-21.9-4.7-24.9S27.3,19.2,27.3,19.2z"/>
	<path class="st1" d="M28.5,19.3l0.8-1.1l-0.8-1c0,0-1.3,0.2,2.8-0.8c4-0.9,11.6-1.8,14.9,2.9c1.6,2.3,3.3,6.4,3.3,6.4
		s-3.6-3.9-5.9-5.1c-2.3-1.2-2.5-1.8-7.2-1.8C32.8,18.9,28.5,19.3,28.5,19.3z"/>
	<path class="st1" d="M28.3,19.3L27,18.9l0.1-1.3c0,0,1.2-0.6-2.7,1C20.6,20.2,13.9,22,14,27.8c0,2.9,1.2,9,1.2,9s0.6-5.3,1.8-7.6
		s1.6-3.4,5.3-6.2C25.2,20.9,28.3,19.3,28.3,19.3z"/>
	<path class="st1" d="M27.3,18.5c0,0,6.7-1.5,9.8,5.1c3,6.6,0.5,12.1,0.5,12.1s-1.3-5-3-8.6S27.3,18.5,27.3,18.5z"/>
	<path class="st1" d="M28.1,20.3c0,0-0.8-7.4,3.1-13.3s13-4.1,13-4.1s-5.8,1.8-9.2,5S28.1,20.3,28.1,20.3z"/>
	<path class="st2" d="M28,18.9c0,0,1.7-5.8,8.4-6.1s7.5,0.4,7.5,0.4s-5-0.4-9.3,1.6S28,18.9,28,18.9z"/>
	<path class="st2" d="M7.1,7c0,0,8-5.3,12.9-1.1s8.4,13,8.4,13S19.5,9.5,17.6,8.2S7.1,7,7.1,7z"/>
	<path class="st1" d="M29,18.8c0,0-4.5-5.9-12.4-4.4S3.2,27.8,3.2,27.8s7.6-5.8,11-7.3C21.3,16.6,29,18.8,29,18.8z"/>
	<g>
		<path class="st3" d="M29,18.3c0.6-0.2,2.3,1.9,2.3,4.9s-1.9,4.8-2.2,4.5c-0.3-0.3,0.6-3,0.7-4.2C30,22.3,28.4,18.5,29,18.3z"/>
		<path class="st3" d="M29.2,18.3c0.5-0.3,2.5,1.5,3,4.6s-1.2,5-1.5,4.8c-0.3-0.2,0.2-3,0.1-4.3C30.7,22.1,28.6,18.5,29.2,18.3z"/>
		<path class="st3" d="M29.3,18.2c0.5-0.3,2.7,1.2,3.6,4.1s-0.5,5.1-0.8,4.9c-0.4-0.2-0.2-3-0.5-4.3C31.3,21.7,28.8,18.5,29.3,18.2z
			"/>
		<path class="st3" d="M29.5,18.1c0.4-0.4,2.8,0.8,4.1,3.6s0.2,5.1-0.1,5c-0.4-0.1-0.6-2.9-1.1-4.2C32,21.3,29,18.5,29.5,18.1z"/>
		<path class="st3" d="M29.6,17.9c0.4-0.5,2.9,0.4,4.6,3c1.6,2.6,1,5.1,0.6,5c-0.4-0.1-1-2.8-1.6-4C32.5,20.8,29.2,18.4,29.6,17.9z"
			/>
	</g>
	<g>
		<path class="st3" d="M28.5,20c-0.6-0.2-2.3,1.9-2.3,5s1.9,4.8,2.2,4.5s-0.6-3-0.7-4.3C27.5,23.9,29,20.2,28.5,20z"/>
		<path class="st3" d="M28.3,19.9c-0.5-0.3-2.5,1.5-3,4.6s1.2,5,1.5,4.8c0.3-0.2-0.2-3-0.1-4.3S28.8,20.2,28.3,19.9z"/>
		<path class="st3" d="M28.1,19.8c-0.5-0.4-2.7,1.2-3.6,4.2s0.5,5.2,0.8,5c0.4-0.2,0.2-3,0.5-4.3S28.6,20.2,28.1,19.8z"/>
		<path class="st3" d="M28,19.7c-0.4-0.4-2.9,0.8-4.1,3.6s-0.2,5.2,0.1,5s0.6-3,1.1-4.2C25.5,22.9,28.4,20.1,28,19.7z"/>
		<path class="st3" d="M27.9,19.5c-0.4-0.5-2.9,0.4-4.6,3s-1,5.1-0.6,5c0.4-0.1,1.1-2.8,1.6-4C25,22.4,28.3,20,27.9,19.5z"/>
	</g>
</g>
</svg>
